<svg xmlns="http://www.w3.org/2000/svg" version="1.1" xmlns:xlink="http://www.w3.org/1999/xlink" xmlns:svgjs="http://svgjs.dev/svgjs" width="1000" height="1000" viewBox="0 0 1000 1000"><rect width="1000" height="1000" fill="#ffffff"></rect><g transform="matrix(0.7,0,0,0.7,149.57575757575762,282.1265587044535)"><svg viewBox="0 0 396 247" data-background-color="#ffffff" preserveAspectRatio="xMidYMid meet" height="623" width="1000" xmlns="http://www.w3.org/2000/svg" xmlns:xlink="http://www.w3.org/1999/xlink"><g id="tight-bounds" transform="matrix(1,0,0,1,0.2400000000000091,-0.09999999999999432)"><svg viewBox="0 0 395.52 247.2" height="247.2" width="395.52"><g><svg></svg></g><g><svg viewBox="0 0 395.52 247.2" height="247.2" width="395.52"><g transform="matrix(1,0,0,1,75.54432,102.25029934956328)"><svg viewBox="0 0 244.43135999999998 42.69940130087344" height="42.69940130087344" width="244.43135999999998"><g><svg viewBox="0 0 244.43135999999998 42.69940130087344" height="42.69940130087344" width="244.43135999999998"><g><svg viewBox="0 0 244.43135999999998 42.69940130087344" height="42.69940130087344" width="244.43135999999998"><g id="textblocktransform"><svg viewBox="0 0 244.43135999999998 42.69940130087344" height="42.69940130087344" width="244.43135999999998" id="textblock"><g><svg viewBox="0 0 244.43135999999998 42.69940130087344" height="42.69940130087344" width="244.43135999999998"><g transform="matrix(1,0,0,1,0,0)"><svg width="244.43135999999998" viewBox="2.8499999046325684 -35.900001525878906 269.0299987792969 47" height="42.69940130087344" data-palette-color="#4f90f5"><path d="M23.7-14.25L17.95-14.25 17.95-17.7 27.5-17.7 27.5-0.7Q21.2 0.5 16.25 0.5L16.25 0.5Q8.7 0.5 5.78-3.85 2.85-8.2 2.85-17.28 2.85-26.35 5.78-30.73 8.7-35.1 16.15-35.1L16.15-35.1Q20.8-35.1 25.8-34.1L25.8-34.1 27.5-33.8 27.35-30.6Q21.15-31.65 16.6-31.65L16.6-31.65Q10.85-31.65 8.85-28.33 6.85-25 6.85-17.28 6.85-9.55 8.85-6.23 10.85-2.9 16.55-2.9L16.55-2.9Q20.05-2.9 23.7-3.6L23.7-3.6 23.7-14.25ZM38.15 0L34.4 0 34.4-25 38.1-25 38.1-21.6Q42.45-24.6 47.25-25.55L47.25-25.55 47.25-21.75Q45.15-21.35 42.87-20.5 40.6-19.65 39.4-19L39.4-19 38.15-18.35 38.15 0ZM69.34-17.45L69.34-17.45 69.34-4.65Q69.5-2.8 72.25-2.45L72.25-2.45 72.09 0.5Q68.14 0.5 66.14-1.5L66.14-1.5Q61.64 0.5 57.14 0.5L57.14 0.5Q53.7 0.5 51.89-1.45 50.09-3.4 50.09-7.05 50.09-10.7 51.95-12.43 53.8-14.15 57.74-14.55L57.74-14.55 65.59-15.3 65.59-17.45Q65.59-20 64.5-21.1 63.39-22.2 61.49-22.2L61.49-22.2Q57.49-22.2 53.2-21.7L53.2-21.7 51.64-21.55 51.49-24.4Q56.99-25.5 61.24-25.5 65.5-25.5 67.42-23.55 69.34-21.6 69.34-17.45ZM53.95-7.25L53.95-7.25Q53.95-2.65 57.74-2.65L57.74-2.65Q61.14-2.65 64.44-3.8L64.44-3.8 65.59-4.2 65.59-12.45 58.2-11.75Q55.95-11.55 54.95-10.45 53.95-9.35 53.95-7.25ZM80.49 11.1L76.74 11.1 76.74-25 80.44-25 80.44-23.2Q84.24-25.5 87.94-25.5L87.94-25.5Q92.69-25.5 94.84-22.48 96.99-19.45 96.99-12.5 96.99-5.55 94.47-2.53 91.94 0.5 86.09 0.5L86.09 0.5Q83.04 0.5 80.49-0.05L80.49-0.05 80.49 11.1ZM87.39-22.15L87.39-22.15Q85.89-22.15 84.17-21.65 82.44-21.15 81.44-20.65L81.44-20.65 80.49-20.15 80.49-3.3Q84.04-2.75 85.89-2.75L85.89-2.75Q89.94-2.75 91.57-5.05 93.19-7.35 93.19-12.55 93.19-17.75 91.72-19.95 90.24-22.15 87.39-22.15ZM106.84-20.65L106.84 0 103.09 0 103.09-35.9 106.84-35.9 106.84-23.6Q110.84-25.5 114.54-25.5L114.54-25.5Q119.54-25.5 121.27-22.8 122.99-20.1 122.99-13.2L122.99-13.2 122.99 0 119.24 0 119.24-13.1Q119.24-18.3 118.22-20.23 117.19-22.15 113.89-22.15L113.89-22.15Q110.74-22.15 107.79-21L107.79-21 106.84-20.65ZM150.04-14.25L144.29-14.25 144.29-17.7 153.84-17.7 153.84-0.7Q147.54 0.5 142.59 0.5L142.59 0.5Q135.04 0.5 132.11-3.85 129.19-8.2 129.19-17.28 129.19-26.35 132.11-30.73 135.04-35.1 142.49-35.1L142.49-35.1Q147.14-35.1 152.14-34.1L152.14-34.1 153.84-33.8 153.69-30.6Q147.49-31.65 142.94-31.65L142.94-31.65Q137.19-31.65 135.19-28.33 133.19-25 133.19-17.28 133.19-9.55 135.19-6.23 137.19-2.9 142.89-2.9L142.89-2.9Q146.39-2.9 150.04-3.6L150.04-3.6 150.04-14.25ZM176.34-4.7L176.34-25 180.09-25 180.09 0 176.34 0 176.34-1.75Q172.59 0.5 168.94 0.5L168.94 0.5Q163.84 0.5 162.16-2.15 160.49-4.8 160.49-11.95L160.49-11.95 160.49-25 164.24-25 164.24-12Q164.24-6.55 165.19-4.7 166.14-2.85 169.49-2.85L169.49-2.85Q171.14-2.85 172.84-3.33 174.54-3.8 175.44-4.25L175.44-4.25 176.34-4.7ZM204.28-3.1L204.28-3.1 205.73-3.25 205.83-0.3Q200.13 0.5 196.08 0.5L196.08 0.5Q190.68 0.5 188.43-2.63 186.18-5.75 186.18-12.35L186.18-12.35Q186.18-25.5 196.63-25.5L196.63-25.5Q201.68-25.5 204.18-22.68 206.68-19.85 206.68-13.8L206.68-13.8 206.48-10.95 189.98-10.95Q189.98-6.8 191.48-4.8 192.98-2.8 196.71-2.8 200.43-2.8 204.28-3.1ZM189.93-13.95L202.93-13.95Q202.93-18.55 201.46-20.45 199.98-22.35 196.66-22.35 193.33-22.35 191.66-20.35 189.98-18.35 189.93-13.95L189.93-13.95ZM220.38-22.15L220.38-22.15Q214.93-22.15 214.93-18.35L214.93-18.35Q214.93-16.6 216.18-15.88 217.43-15.15 221.88-14.38 226.33-13.6 228.18-12.2 230.03-10.8 230.03-6.95 230.03-3.1 227.56-1.3 225.08 0.5 220.33 0.5L220.33 0.5Q217.23 0.5 213.03-0.2L213.03-0.2 211.53-0.45 211.73-3.7Q217.43-2.85 220.33-2.85 223.23-2.85 224.76-3.78 226.28-4.7 226.28-6.88 226.28-9.05 224.98-9.83 223.68-10.6 219.28-11.3 214.88-12 213.03-13.35 211.18-14.7 211.18-18.35 211.18-22 213.76-23.75 216.33-25.5 220.18-25.5L220.18-25.5Q223.23-25.5 227.83-24.8L227.83-24.8 229.23-24.55 229.13-21.35Q223.58-22.15 220.38-22.15ZM243.63-22.15L243.63-22.15Q238.18-22.15 238.18-18.35L238.18-18.35Q238.18-16.6 239.43-15.88 240.68-15.15 245.13-14.38 249.58-13.6 251.43-12.2 253.28-10.8 253.28-6.95 253.28-3.1 250.8-1.3 248.33 0.5 243.58 0.5L243.58 0.5Q240.48 0.5 236.28-0.2L236.28-0.2 234.78-0.45 234.98-3.7Q240.68-2.85 243.58-2.85 246.48-2.85 248-3.78 249.53-4.7 249.53-6.88 249.53-9.05 248.23-9.83 246.93-10.6 242.53-11.3 238.13-12 236.28-13.35 234.43-14.7 234.43-18.35 234.43-22 237-23.75 239.58-25.5 243.43-25.5L243.43-25.5Q246.48-25.5 251.08-24.8L251.08-24.8 252.48-24.55 252.38-21.35Q246.83-22.15 243.63-22.15ZM262.78 0L259.03 0 259.03-25 262.73-25 262.73-21.6Q267.08-24.6 271.88-25.55L271.88-25.55 271.88-21.75Q269.78-21.35 267.5-20.5 265.23-19.65 264.03-19L264.03-19 262.78-18.35 262.78 0Z" opacity="1" transform="matrix(1,0,0,1,0,0)" fill="#4f90f5" class="wordmark-text-0" data-fill-palette-color="primary" id="text-0"></path></svg></g></svg></g></svg></g></svg></g></svg></g></svg></g><g><path d="M0 123.6c0-68.262 55.338-123.6 123.6-123.6 59.205 0 108.688 41.627 120.776 97.21l-1.971 0c-12.054-54.511-60.668-95.285-118.805-95.285-67.199 0-121.675 54.476-121.675 121.675 0 67.199 54.476 121.675 121.675 121.675 58.137 0 106.751-40.774 118.805-95.285h1.971c-12.089 55.583-61.571 97.21-120.776 97.21-68.262 0-123.6-55.338-123.6-123.6z" fill="#4790fc" stroke="transparent" data-fill-palette-color="tertiary"></path></g></svg></g><defs></defs></svg><rect width="395.52" height="247.2" fill="none" stroke="none" visibility="hidden"></rect></g></svg></g></svg>